<svg width="28" height="32" viewBox="0 0 28 32" fill="none" xmlns="http://www.w3.org/2000/svg">
<g id="Group 4">
<path id="Shape" fill-rule="evenodd" clip-rule="evenodd" d="M18.3 17.4C20.4 15.6 21.3 13.1 21.3 9.7C21.3 6.5 20.5 4.1 18.5 2.4C16.5 0.8 13.7 0 9.9 0H0V31.2H6.5V20.1H9.4C13.2 20.1 16.2 19.2 18.3 17.4ZM8.7 14.7H6.5V5.5H9.5C11.3 5.5 12.7 5.9 13.5 6.6C14.4 7.3 14.8 8.5 14.8 10C14.8 11.5 14.3 12.7 13.3 13.5C12.3 14.3 10.7 14.7 8.7 14.7Z" fill="#1B1B1B" fill-opacity="0.6"/>
<path id="Shape_2" fill-rule="evenodd" clip-rule="evenodd" d="M24.8 17.4C26.9 15.6 27.8 13.1 27.8 9.7C27.8 6.5 27 4.1 25 2.4C23 0.8 20.2 0 16.4 0H6.5V31.2H13.1V20.1H15.9C19.7 20.1 22.7 19.2 24.8 17.4ZM15.2 14.7H13V5.5H16C17.8 5.5 19.2 5.9 20 6.6C20.9 7.3 21.3 8.5 21.3 10C21.3 11.5 20.8 12.7 19.8 13.5C18.8 14.3 17.2 14.7 15.2 14.7Z" fill="#1B1B1B" fill-opacity="0.22"/>
</g>
</svg>
