<svg width="21" height="17" viewBox="0 0 21 17" fill="none" xmlns="http://www.w3.org/2000/svg">
<path fill-rule="evenodd" clip-rule="evenodd" d="M1 14.1349C1 15.1324 1.7821 15.9439 2.74346 15.9439H18.224C19.1853 15.9439 19.9675 15.1324 19.9675 14.1349V2.83127C19.9675 1.83381 19.1853 1.0224 18.224 1.0224H2.74346C1.7821 1.0224 1 1.83389 1 2.83127V14.1349ZM2.13546 2.83127C2.13546 2.4829 2.40804 2.20041 2.74346 2.20041H18.224C18.5596 2.20041 18.832 2.4829 18.832 2.83127V14.1349C18.832 14.4834 18.5595 14.7659 18.224 14.7659H2.74346C2.40797 14.7659 2.13546 14.4834 2.13546 14.1349V2.83127ZM3.25108 13.9328H4.38654V5.25271L9.7238 8.84761C9.95014 8.99997 10.213 9.08046 10.4837 9.08046C10.7545 9.08046 11.0173 8.99997 11.2438 8.84753L16.581 5.25271V13.9328H17.7164V3.08345L10.6257 7.85934C10.542 7.91572 10.4254 7.91565 10.3419 7.85949L3.25108 3.08345V13.9328Z" fill="black"/>
<path d="M4.38654 13.9328V14.1828H4.63654V13.9328H4.38654ZM3.25108 13.9328H3.00108V14.1828H3.25108V13.9328ZM4.38654 5.25271L4.5262 5.04536L4.13654 4.78291V5.25271H4.38654ZM9.7238 8.84761L9.58414 9.05496L9.5842 9.055L9.7238 8.84761ZM11.2438 8.84753L11.3834 9.05493L11.3835 9.05488L11.2438 8.84753ZM16.581 5.25271H16.831V4.78291L16.4413 5.04536L16.581 5.25271ZM16.581 13.9328H16.331V14.1828H16.581V13.9328ZM17.7164 13.9328V14.1828H17.9664V13.9328H17.7164ZM17.7164 3.08345H17.9664V2.61364L17.5768 2.87609L17.7164 3.08345ZM10.6257 7.85934L10.486 7.65198L10.4859 7.65204L10.6257 7.85934ZM10.3419 7.85949L10.2023 8.06685L10.2023 8.06689L10.3419 7.85949ZM3.25108 3.08345L3.39075 2.8761L3.00108 2.61364V3.08345H3.25108ZM2.74346 15.6939C1.92879 15.6939 1.25 15.0031 1.25 14.1349H0.75C0.75 15.2617 1.63542 16.1939 2.74346 16.1939V15.6939ZM18.224 15.6939H2.74346V16.1939H18.224V15.6939ZM19.7175 14.1349C19.7175 15.0031 19.0387 15.6939 18.224 15.6939V16.1939C19.332 16.1939 20.2175 15.2617 20.2175 14.1349H19.7175ZM19.7175 2.83127V14.1349H20.2175V2.83127H19.7175ZM18.224 1.2724C19.0387 1.2724 19.7175 1.96313 19.7175 2.83127H20.2175C20.2175 1.7045 19.332 0.7724 18.224 0.7724V1.2724ZM2.74346 1.2724H18.224V0.7724H2.74346V1.2724ZM1.25 2.83127C1.25 1.9632 1.92878 1.2724 2.74346 1.2724V0.7724C1.63543 0.7724 0.75 1.70458 0.75 2.83127H1.25ZM1.25 14.1349V2.83127H0.75V14.1349H1.25ZM2.74346 1.95041C2.26144 1.95041 1.88546 2.35351 1.88546 2.83127H2.38546C2.38546 2.61228 2.55464 2.45041 2.74346 2.45041V1.95041ZM18.224 1.95041H2.74346V2.45041H18.224V1.95041ZM19.082 2.83127C19.082 2.35355 18.7062 1.95041 18.224 1.95041V2.45041C18.4129 2.45041 18.582 2.61224 18.582 2.83127H19.082ZM19.082 14.1349V2.83127H18.582V14.1349H19.082ZM18.224 15.0159C18.7061 15.0159 19.082 14.6127 19.082 14.1349H18.582C18.582 14.354 18.4128 14.5159 18.224 14.5159V15.0159ZM2.74346 15.0159H18.224V14.5159H2.74346V15.0159ZM1.88546 14.1349C1.88546 14.6127 2.26133 15.0159 2.74346 15.0159V14.5159C2.55461 14.5159 2.38546 14.354 2.38546 14.1349H1.88546ZM1.88546 2.83127V14.1349H2.38546V2.83127H1.88546ZM4.38654 13.6828H3.25108V14.1828H4.38654V13.6828ZM4.13654 5.25271V13.9328H4.63654V5.25271H4.13654ZM9.86346 8.64026L4.5262 5.04536L4.24688 5.46007L9.58414 9.05496L9.86346 8.64026ZM10.4837 8.83046C10.2631 8.83046 10.0488 8.76501 9.8634 8.64022L9.5842 9.055C9.85148 9.23492 10.1628 9.33046 10.4837 9.33046V8.83046ZM11.1042 8.64013C10.9187 8.76502 10.7044 8.83046 10.4837 8.83046V9.33046C10.8046 9.33046 11.116 9.23491 11.3834 9.05493L11.1042 8.64013ZM16.4413 5.04536L11.1041 8.64018L11.3835 9.05488L16.7206 5.46007L16.4413 5.04536ZM16.831 13.9328V5.25271H16.331V13.9328H16.831ZM17.7164 13.6828H16.581V14.1828H17.7164V13.6828ZM17.4664 3.08345V13.9328H17.9664V3.08345H17.4664ZM10.7653 8.06669L17.8561 3.2908L17.5768 2.87609L10.486 7.65198L10.7653 8.06669ZM10.2023 8.06689C10.3702 8.17985 10.5973 8.17996 10.7654 8.06663L10.4859 7.65204C10.4885 7.65027 10.4879 7.65162 10.4837 7.65162C10.4794 7.65162 10.4788 7.65026 10.4815 7.6521L10.2023 8.06689ZM3.11142 3.2908L10.2023 8.06685L10.4816 7.65214L3.39075 2.8761L3.11142 3.2908ZM3.50108 13.9328V3.08345H3.00108V13.9328H3.50108Z" fill="black"/>
</svg>
