<svg width="19" height="15" viewBox="0 0 19 15" fill="none" xmlns="http://www.w3.org/2000/svg">
<path fill-rule="evenodd" clip-rule="evenodd" d="M0 13.1349C0 14.1324 0.782104 14.9439 1.74346 14.9439H17.224C18.1853 14.9439 18.9675 14.1324 18.9675 13.1349V1.83126C18.9675 0.833798 18.1853 0.0223846 17.224 0.0223846H1.74346C0.782104 0.0223846 0 0.833877 0 1.83126V13.1349ZM1.13546 1.83126C1.13546 1.48288 1.40804 1.2004 1.74346 1.2004H17.224C17.5596 1.2004 17.832 1.48288 17.832 1.83126V13.1349C17.832 13.4834 17.5595 13.7658 17.224 13.7658H1.74346C1.40797 13.7658 1.13546 13.4834 1.13546 13.1349V1.83126ZM2.25108 12.9328H3.38654V4.2527L8.7238 7.84759C8.95014 7.99995 9.21296 8.08045 9.48372 8.08045C9.75449 8.08045 10.0173 7.99995 10.2438 7.84752L15.581 4.2527V12.9328H16.7164V2.08343L9.62566 6.85932C9.54201 6.91571 9.42536 6.91563 9.34194 6.85948L2.25108 2.08343V12.9328Z" fill="black"/>
</svg>
