<svg width="18" height="17" viewBox="0 0 18 17" fill="none" xmlns="http://www.w3.org/2000/svg">
<path fill-rule="evenodd" clip-rule="evenodd" d="M16.5004 1.52859C16.2432 1.19259 15.8444 1 15.4059 1C15.1226 1 14.8293 1.07881 14.5336 1.23407L1.94394 7.83496C1.04913 8.30489 0.986905 9.01244 1.00172 9.29452C1.01594 9.57837 1.15283 10.2747 2.0915 10.6474L3.70039 11.2839C4.00557 11.4047 4.34691 11.467 4.71431 11.467C4.75018 11.467 4.78515 11.464 4.82019 11.4611H4.8202L4.82025 11.4611C4.84192 11.4593 4.86362 11.4574 4.88557 11.4563C4.8759 11.4688 4.8653 11.4801 4.85474 11.4914L4.85474 11.4914C4.84138 11.5056 4.82809 11.5197 4.81683 11.5363C4.51698 11.9849 4.50216 12.5929 4.77357 13.2477C4.77772 13.259 4.78187 13.2684 4.78602 13.2779C5.26187 14.3321 5.79105 15.5221 5.85505 15.6874C6.01268 16.0987 6.41446 16.3819 6.85535 16.3819C7.53446 16.3819 7.73594 16.0548 8.84705 14.2462C8.93357 14.1135 9.12616 13.8053 9.15876 13.413C9.24065 13.4463 9.31947 13.4779 9.39269 13.5073L9.39315 13.5075L9.5149 13.5564L11.2974 14.283C11.6548 14.4287 11.9676 14.5573 12.1324 14.6255C12.1834 14.6569 12.2373 14.6836 12.2936 14.7067C12.4192 14.7564 12.5531 14.7819 12.6876 14.7819C13.498 14.7819 13.6926 14.0802 13.7969 13.7038L13.797 13.7034C13.8485 13.5173 13.9196 13.2596 13.9961 12.9751L16.7149 2.98519C16.9199 2.23081 16.6681 1.74904 16.5004 1.52859ZM7.94928 13.6773C7.94928 13.6773 6.94068 15.3194 6.85476 15.3194C6.85239 15.3194 6.8512 15.3182 6.85002 15.3159C6.75105 15.0498 5.75431 12.8412 5.75431 12.8412C5.57061 12.3985 5.60379 12.0193 5.91965 12.0193C5.98898 12.0193 6.07194 12.0376 6.16913 12.0779L6.94305 12.4803C7.07224 12.5686 7.21328 12.645 7.36854 12.7061L7.40765 12.7209L7.48053 12.7576C8.07846 13.0741 8.26868 13.1884 7.94928 13.6773ZM12.9721 12.6954L15.6897 2.70548C15.7999 2.29956 15.6767 2.06252 15.4059 2.06252C15.3004 2.06252 15.173 2.09807 15.0278 2.17393L2.43698 8.776C1.91965 9.04859 1.94039 9.44563 2.48379 9.66074L4.0915 10.2966C4.27579 10.3695 4.49209 10.405 4.71491 10.405C5.14987 10.405 5.61268 10.2723 5.91728 10.0347L12.8992 4.52711C13.1042 4.36652 13.2269 4.2877 13.2648 4.2877C13.3128 4.2877 13.2293 4.40978 13.0076 4.64622L7.48942 10.555C7.15757 10.9087 7.18661 11.3259 7.51668 11.579L7.84972 11.752L7.93979 11.7881C8.48439 11.9979 9.37268 12.3529 9.91431 12.5721L11.698 13.2987L11.7177 13.3067C12.2504 13.5247 12.6829 13.7017 12.6829 13.7052C12.6829 13.707 12.6859 13.7176 12.6882 13.7188C12.6906 13.7188 12.8186 13.2584 12.9721 12.6954Z" fill="#010002"/>
<path d="M16.5004 1.52859L16.6994 1.37723L16.6989 1.37664L16.5004 1.52859ZM14.5336 1.23407L14.6497 1.45549L14.6498 1.45542L14.5336 1.23407ZM1.94394 7.83496L1.82785 7.61355L1.82771 7.61363L1.94394 7.83496ZM1.00172 9.29452L1.25141 9.28201L1.25138 9.28141L1.00172 9.29452ZM2.0915 10.6474L1.99923 10.8798L1.99954 10.8799L2.0915 10.6474ZM3.70039 11.2839L3.79246 11.0514L3.79235 11.0514L3.70039 11.2839ZM4.82019 11.4611V11.2111H4.8097L4.79924 11.212L4.82019 11.4611ZM4.8202 11.4611V11.7111H4.82813L4.83604 11.7106L4.8202 11.4611ZM4.82025 11.4611L4.83609 11.7106L4.84119 11.7102L4.82025 11.4611ZM4.88557 11.4563L5.08358 11.6089L5.41523 11.1787L4.8727 11.2066L4.88557 11.4563ZM4.85474 11.4914L5.03161 11.6682L5.03696 11.6625L4.85474 11.4914ZM4.85474 11.4914L4.67787 11.3145L4.67252 11.3202L4.85474 11.4914ZM4.81683 11.5363L4.61009 11.3957L4.60899 11.3974L4.81683 11.5363ZM4.77357 13.2477L5.00834 13.1612L5.00452 13.152L4.77357 13.2477ZM4.78602 13.2779L4.55696 13.3781L4.55815 13.3808L4.78602 13.2779ZM5.85505 15.6874L6.0885 15.5979L6.0882 15.5972L5.85505 15.6874ZM8.84705 14.2462L8.63754 14.1097L8.63404 14.1154L8.84705 14.2462ZM9.15876 13.413L9.25288 13.1814L8.93778 13.0534L8.90962 13.3923L9.15876 13.413ZM9.39269 13.5073L9.48628 13.2755L9.48578 13.2753L9.39269 13.5073ZM9.39315 13.5075L9.29956 13.7393L9.29992 13.7395L9.39315 13.5075ZM9.5149 13.5564L9.60926 13.3249L9.60814 13.3245L9.5149 13.5564ZM11.2974 14.283L11.3919 14.0515L11.3918 14.0515L11.2974 14.283ZM12.1324 14.6255L12.2635 14.4127L12.2465 14.4021L12.228 14.3945L12.1324 14.6255ZM12.2936 14.7067L12.1986 14.938L12.2015 14.9391L12.2936 14.7067ZM13.7969 13.7038L13.5561 13.6367L13.556 13.637L13.7969 13.7038ZM13.797 13.7034L14.0378 13.7705L14.0379 13.7702L13.797 13.7034ZM13.9961 12.9751L13.7549 12.9095L13.7547 12.9102L13.9961 12.9751ZM16.7149 2.98519L16.9561 3.05084L16.9562 3.05076L16.7149 2.98519ZM7.94928 13.6773L7.7399 13.5405L7.73625 13.5465L7.94928 13.6773ZM6.85002 15.3159L6.6157 15.403L6.62039 15.4156L6.62641 15.4277L6.85002 15.3159ZM5.75431 12.8412L5.5233 12.9371L5.52644 12.944L5.75431 12.8412ZM6.16913 12.0779L6.28445 11.8561L6.27486 11.8511L6.26488 11.847L6.16913 12.0779ZM6.94305 12.4803L7.08412 12.2739L7.07171 12.2654L7.05838 12.2585L6.94305 12.4803ZM7.36854 12.7061L7.27706 12.9388L7.27998 12.9399L7.36854 12.7061ZM7.40765 12.7209L7.52017 12.4976L7.50846 12.4917L7.4962 12.4871L7.40765 12.7209ZM7.48053 12.7576L7.5975 12.5366L7.59306 12.5344L7.48053 12.7576ZM15.6897 2.70548L15.931 2.77111L15.931 2.77099L15.6897 2.70548ZM12.9721 12.6954L13.2133 12.7612L13.2133 12.761L12.9721 12.6954ZM15.0278 2.17393L14.912 1.95234L14.9117 1.95252L15.0278 2.17393ZM2.43698 8.776L2.32088 8.55459L2.32044 8.55483L2.43698 8.776ZM2.48379 9.66074L2.39178 9.89319L2.39185 9.89322L2.48379 9.66074ZM4.0915 10.2966L3.99955 10.5291H3.99955L4.0915 10.2966ZM5.91728 10.0347L6.07105 10.2318L6.07211 10.2309L5.91728 10.0347ZM12.8992 4.52711L12.745 4.33029L12.7444 4.33083L12.8992 4.52711ZM13.0076 4.64622L12.8252 4.47525L12.8249 4.47559L13.0076 4.64622ZM7.48942 10.555L7.67176 10.726L7.67214 10.7256L7.48942 10.555ZM7.51668 11.579L7.36458 11.7774L7.38197 11.7907L7.40142 11.8008L7.51668 11.579ZM7.84972 11.752L7.73446 11.9738L7.74528 11.9795L7.75661 11.984L7.84972 11.752ZM7.93979 11.7881L7.84667 12.0202L7.84993 12.0214L7.93979 11.7881ZM9.91431 12.5721L10.0086 12.3406L10.0081 12.3404L9.91431 12.5721ZM11.698 13.2987L11.7927 13.0673L11.7923 13.0671L11.698 13.2987ZM11.7177 13.3067L11.623 13.5381L11.623 13.5381L11.7177 13.3067ZM12.6882 13.7188L12.5765 13.9424L12.6292 13.9688H12.6882V13.7188ZM15.4059 1.25C15.7699 1.25 16.094 1.40893 16.3019 1.68055L16.6989 1.37664C16.3924 0.976251 15.9189 0.75 15.4059 0.75V1.25ZM14.6498 1.45542C14.9161 1.31557 15.1698 1.25 15.4059 1.25V0.75C15.0754 0.75 14.7424 0.842057 14.4174 1.01273L14.6498 1.45542ZM2.06003 8.05638L14.6497 1.45549L14.4175 1.01266L1.82785 7.61355L2.06003 8.05638ZM1.25138 9.28141C1.23984 9.06177 1.27908 8.4665 2.06018 8.0563L1.82771 7.61363C0.819172 8.14328 0.73397 8.96312 0.752064 9.30763L1.25138 9.28141ZM2.18376 10.4151C1.36434 10.0897 1.26246 9.50258 1.25141 9.28201L0.752033 9.30703C0.769426 9.65416 0.941319 10.4597 1.99923 10.8798L2.18376 10.4151ZM3.79235 11.0514L2.18346 10.4149L1.99954 10.8799L3.60843 11.5163L3.79235 11.0514ZM4.71431 11.217C4.37513 11.217 4.06541 11.1595 3.79246 11.0514L3.60832 11.5163C3.94573 11.6499 4.31868 11.717 4.71431 11.717V11.217ZM4.79924 11.212C4.76262 11.215 4.738 11.217 4.71431 11.217V11.717C4.76237 11.717 4.80768 11.713 4.84113 11.7102L4.79924 11.212ZM4.8202 11.2111H4.82019V11.7111H4.8202V11.2111ZM4.80441 11.2116L4.80436 11.2116L4.83604 11.7106L4.83609 11.7106L4.80441 11.2116ZM4.8727 11.2066C4.84604 11.208 4.82033 11.2102 4.79931 11.212L4.84119 11.7102C4.86351 11.7083 4.88119 11.7069 4.89844 11.706L4.8727 11.2066ZM5.03696 11.6625C5.04626 11.6526 5.06526 11.6327 5.08358 11.6089L4.68757 11.3037C4.6875 11.3038 4.6866 11.3049 4.68409 11.3077C4.68132 11.3108 4.67815 11.3142 4.67253 11.3202L5.03696 11.6625ZM5.03151 11.6681L5.03152 11.6681L4.67797 11.3146L4.67796 11.3146L5.03151 11.6681ZM5.02357 11.6769C5.02215 11.679 5.02177 11.6792 5.02392 11.6767C5.02498 11.6755 5.02647 11.6738 5.02869 11.6714C5.031 11.6689 5.03347 11.6662 5.03695 11.6625L4.67252 11.3202C4.66115 11.3323 4.63417 11.3603 4.6101 11.3957L5.02357 11.6769ZM5.00452 13.152C4.7538 12.5471 4.78554 12.033 5.02467 11.6752L4.60899 11.3974C4.24842 11.9368 4.25053 12.6387 4.54262 13.3434L5.00452 13.152ZM5.01505 13.1777C5.01075 13.1679 5.00941 13.1647 5.00816 13.1613L4.53899 13.3341C4.54603 13.3532 4.55299 13.369 4.55698 13.3781L5.01505 13.1777ZM6.0882 15.5972C6.02099 15.4235 5.48757 14.2245 5.01388 13.1751L4.55815 13.3808C5.03617 14.4398 5.56112 15.6206 5.62191 15.7777L6.0882 15.5972ZM6.85535 16.1319C6.52066 16.1319 6.21002 15.915 6.08849 15.5979L5.62161 15.7769C5.81535 16.2823 6.30827 16.6319 6.85535 16.6319V16.1319ZM8.63404 14.1154C8.07165 15.0308 7.75792 15.5392 7.5025 15.826C7.37989 15.9637 7.28375 16.0345 7.19473 16.0743C7.10644 16.1138 7.00496 16.1319 6.85535 16.1319V16.6319C7.04529 16.6319 7.22367 16.6091 7.39887 16.5308C7.57336 16.4527 7.72436 16.3287 7.8759 16.1586C8.16878 15.8297 8.51134 15.2703 9.06007 14.3771L8.63404 14.1154ZM8.90962 13.3923C8.88248 13.719 8.72032 13.9828 8.63761 14.1097L9.05649 14.3827C9.14682 14.2442 9.36985 13.8917 9.4079 13.4337L8.90962 13.3923ZM9.48578 13.2753C9.4125 13.2459 9.33418 13.2145 9.25288 13.1814L9.06463 13.6446C9.14711 13.6782 9.22643 13.71 9.29959 13.7393L9.48578 13.2753ZM9.48674 13.2757L9.48628 13.2755L9.2991 13.7391L9.29956 13.7393L9.48674 13.2757ZM9.60814 13.3245L9.48638 13.2755L9.29992 13.7395L9.42167 13.7884L9.60814 13.3245ZM11.3918 14.0515L9.60926 13.3249L9.42055 13.788L11.2031 14.5145L11.3918 14.0515ZM12.228 14.3945C12.0627 14.3261 11.7495 14.1974 11.3919 14.0515L11.203 14.5144C11.5601 14.6601 11.8726 14.7885 12.0368 14.8565L12.228 14.3945ZM12.3885 14.4754C12.3428 14.4566 12.3013 14.4359 12.2635 14.4127L12.0012 14.8383C12.0654 14.8779 12.1318 14.9105 12.1986 14.9379L12.3885 14.4754ZM12.6876 14.5319C12.5846 14.5319 12.4819 14.5124 12.3857 14.4742L12.2015 14.9391C12.3565 15.0005 12.5216 15.0319 12.6876 15.0319V14.5319ZM13.556 13.637C13.5024 13.8301 13.4374 14.056 13.3054 14.2363C13.1844 14.4014 13.005 14.5319 12.6876 14.5319V15.0319C13.1807 15.0319 13.5037 14.8116 13.7087 14.5317C13.9026 14.2671 13.987 13.9538 14.0378 13.7705L13.556 13.637ZM13.5562 13.6363L13.5561 13.6367L14.0377 13.7709L14.0378 13.7705L13.5562 13.6363ZM13.7547 12.9102C13.6785 13.1938 13.6075 13.4508 13.5561 13.6367L14.0379 13.7702C14.0895 13.5838 14.1608 13.3254 14.2375 13.04L13.7547 12.9102ZM16.4737 2.91953L13.7549 12.9095L14.2373 13.0408L16.9561 3.05084L16.4737 2.91953ZM16.3014 1.67996C16.4323 1.85206 16.6543 2.25515 16.4737 2.91961L16.9562 3.05076C17.1856 2.20648 16.9038 1.64602 16.6994 1.37723L16.3014 1.67996ZM6.85476 15.5694C6.94057 15.5694 6.99954 15.526 7.00904 15.5194C7.03002 15.5046 7.0467 15.489 7.0574 15.4783C7.0797 15.4562 7.10196 15.4297 7.12193 15.4047C7.16306 15.3531 7.21332 15.2835 7.26753 15.2052C7.37682 15.0474 7.51292 14.8391 7.64477 14.6332C7.77697 14.4267 7.90633 14.2205 8.00254 14.0661C8.05067 13.9888 8.09056 13.9244 8.11844 13.8793C8.13238 13.8568 8.14332 13.839 8.15079 13.8269C8.15452 13.8208 8.15739 13.8162 8.15932 13.813C8.16029 13.8114 8.16103 13.8102 8.16153 13.8094C8.16178 13.809 8.16197 13.8087 8.1621 13.8085C8.16216 13.8084 8.16221 13.8083 8.16225 13.8083C8.16226 13.8082 8.16228 13.8082 8.16228 13.8082C8.16229 13.8082 8.1623 13.8082 7.94928 13.6773C7.73625 13.5465 7.73625 13.5465 7.73624 13.5465C7.73624 13.5465 7.73623 13.5465 7.73621 13.5465C7.73619 13.5466 7.73614 13.5467 7.73609 13.5468C7.73597 13.5469 7.73579 13.5472 7.73556 13.5476C7.73509 13.5484 7.73438 13.5495 7.73343 13.5511C7.73155 13.5541 7.72874 13.5587 7.72507 13.5647C7.71772 13.5766 7.70691 13.5941 7.6931 13.6165C7.66549 13.6612 7.62591 13.725 7.57814 13.8017C7.48256 13.9552 7.35439 14.1595 7.22371 14.3636C7.09267 14.5682 6.96051 14.7704 6.85652 14.9205C6.80409 14.9962 6.76146 15.0548 6.73099 15.093C6.72361 15.1022 6.71756 15.1095 6.71278 15.115C6.71042 15.1178 6.70856 15.1198 6.70716 15.1213C6.70647 15.1221 6.70594 15.1227 6.70556 15.123C6.70519 15.1234 6.70501 15.1236 6.70502 15.1236C6.70503 15.1236 6.7053 15.1233 6.70582 15.1228C6.70632 15.1224 6.70718 15.1216 6.70837 15.1205C6.71047 15.1187 6.71507 15.1148 6.72187 15.11C6.72252 15.1096 6.77431 15.0694 6.85476 15.0694V15.5694ZM6.62641 15.4277C6.63208 15.439 6.6523 15.479 6.69576 15.5137C6.74817 15.5557 6.80696 15.5694 6.85476 15.5694V15.0694C6.90018 15.0694 6.9572 15.0826 7.00812 15.1233C7.0501 15.1569 7.06914 15.1951 7.07362 15.204L6.62641 15.4277ZM5.75431 12.8412C5.52644 12.944 5.52645 12.944 5.52645 12.944C5.52646 12.9441 5.52647 12.9441 5.52649 12.9441C5.52652 12.9442 5.52656 12.9443 5.52662 12.9444C5.52674 12.9447 5.52692 12.9451 5.52716 12.9456C5.52764 12.9467 5.52835 12.9482 5.52929 12.9503C5.53118 12.9545 5.53398 12.9607 5.53763 12.9688C5.54495 12.9851 5.55569 13.0089 5.56941 13.0393C5.59683 13.1002 5.63613 13.1874 5.6836 13.293C5.77854 13.5041 5.90613 13.7883 6.0368 14.0807C6.30106 14.6722 6.56987 15.2798 6.6157 15.403L7.08433 15.2287C7.0312 15.0858 6.75215 14.4561 6.49331 13.8768C6.36242 13.5838 6.23464 13.2992 6.1396 13.0879C6.09208 12.9822 6.05273 12.8949 6.02526 12.8339C6.01153 12.8034 6.00076 12.7795 5.99343 12.7633C5.98976 12.7551 5.98695 12.7489 5.98506 12.7447C5.98411 12.7426 5.98339 12.741 5.98291 12.74C5.98267 12.7394 5.98249 12.739 5.98237 12.7388C5.98231 12.7386 5.98226 12.7385 5.98223 12.7385C5.98221 12.7384 5.9822 12.7384 5.98219 12.7384C5.98219 12.7384 5.98218 12.7383 5.75431 12.8412ZM5.91965 11.7693C5.78778 11.7693 5.66111 11.8104 5.56244 11.9043C5.46731 11.9948 5.4214 12.1121 5.40299 12.2235C5.3673 12.4394 5.42327 12.6957 5.52341 12.937L5.98522 12.7454C5.90165 12.544 5.88236 12.3893 5.8963 12.305C5.90271 12.2662 5.91284 12.2611 5.90702 12.2666C5.89766 12.2755 5.89359 12.2693 5.91965 12.2693V11.7693ZM6.26488 11.847C6.1479 11.7985 6.03161 11.7693 5.91965 11.7693V12.2693C5.94635 12.2693 5.99599 12.2768 6.07338 12.3089L6.26488 11.847ZM7.05838 12.2585L6.28445 11.8561L6.05381 12.2997L6.82773 12.7021L7.05838 12.2585ZM7.46 12.4734C7.32314 12.4196 7.19866 12.3522 7.08412 12.2739L6.80198 12.6867C6.94582 12.785 7.10342 12.8705 7.27707 12.9387L7.46 12.4734ZM7.4962 12.4871L7.45709 12.4723L7.27998 12.9399L7.31909 12.9547L7.4962 12.4871ZM7.59306 12.5344L7.52017 12.4976L7.29512 12.9441L7.36801 12.9809L7.59306 12.5344ZM8.15857 13.8141C8.24403 13.6833 8.31219 13.5534 8.33952 13.4233C8.36966 13.2799 8.3487 13.1424 8.26974 13.0185C8.19922 12.9078 8.09268 12.8249 7.98698 12.7563C7.87901 12.6863 7.74469 12.6146 7.59748 12.5367L7.36359 12.9786C7.51534 13.0589 7.62902 13.1201 7.71491 13.1758C7.80305 13.233 7.83622 13.2686 7.84807 13.2872C7.85148 13.2925 7.85556 13.295 7.85021 13.3205C7.84207 13.3592 7.81422 13.427 7.73998 13.5406L8.15857 13.8141ZM15.4485 2.63986L12.7309 12.6298L13.2133 12.761L15.931 2.77111L15.4485 2.63986ZM15.4059 2.31252C15.437 2.31252 15.4495 2.31915 15.452 2.32064C15.4532 2.3214 15.4578 2.32378 15.4638 2.33675C15.4793 2.37036 15.4965 2.4632 15.4485 2.63997L15.931 2.77099C15.9932 2.54184 16.0038 2.3132 15.9176 2.12681C15.8207 1.91746 15.6261 1.81252 15.4059 1.81252V2.31252ZM15.1436 2.39551C15.267 2.33104 15.3539 2.31252 15.4059 2.31252V1.81252C15.2468 1.81252 15.079 1.86511 14.912 1.95234L15.1436 2.39551ZM2.55308 8.99741L15.1439 2.39533L14.9117 1.95252L2.32088 8.55459L2.55308 8.99741ZM2.57581 9.42829C2.33268 9.33205 2.31278 9.2366 2.31226 9.22677C2.31173 9.21659 2.3219 9.11922 2.55352 8.99717L2.32044 8.55483C2.03472 8.70537 1.7966 8.94282 1.81296 9.25308C1.82933 9.56369 2.0915 9.77433 2.39178 9.89319L2.57581 9.42829ZM4.18344 10.0641L2.57574 9.42826L2.39185 9.89322L3.99955 10.5291L4.18344 10.0641ZM4.71491 10.155C4.517 10.155 4.33292 10.1232 4.18344 10.0641L3.99955 10.5291C4.21867 10.6157 4.46718 10.655 4.71491 10.655V10.155ZM5.7635 9.83756C5.51278 10.0332 5.10822 10.155 4.71491 10.155V10.655C5.19152 10.655 5.71259 10.5114 6.07105 10.2318L5.7635 9.83756ZM12.7444 4.33083L5.76244 9.83838L6.07211 10.2309L13.054 4.72339L12.7444 4.33083ZM13.2648 4.0377C13.1914 4.0377 13.13 4.06841 13.1098 4.07839C13.0773 4.09446 13.0427 4.11524 13.0082 4.13774C12.9384 4.18323 12.85 4.24811 12.745 4.33029L13.0534 4.72393C13.1535 4.64552 13.2289 4.59069 13.2812 4.55663C13.3077 4.53935 13.3237 4.53039 13.3313 4.52667C13.335 4.52482 13.3328 4.52621 13.3259 4.5285C13.3218 4.52987 13.2987 4.5377 13.2648 4.5377V4.0377ZM13.19 4.81719C13.3025 4.69721 13.3884 4.59744 13.4413 4.52289C13.4634 4.49176 13.4981 4.44015 13.5155 4.38238C13.5221 4.36055 13.5466 4.27536 13.5008 4.18273C13.44 4.05953 13.3209 4.0377 13.2648 4.0377V4.5377C13.2208 4.5377 13.1096 4.51969 13.0525 4.40409C13.0105 4.31906 13.0346 4.24525 13.0366 4.23857C13.0449 4.21107 13.0539 4.20476 13.0334 4.2337C13.0011 4.2793 12.9344 4.35879 12.8252 4.47525L13.19 4.81719ZM7.67214 10.7256L13.1904 4.81686L12.8249 4.47559L7.30671 10.3843L7.67214 10.7256ZM7.66878 11.3806C7.55576 11.2939 7.50845 11.1925 7.50464 11.095C7.50074 10.995 7.54162 10.8647 7.67176 10.726L7.30709 10.3839C7.10537 10.599 6.99485 10.8542 7.00502 11.1145C7.01529 11.3773 7.14753 11.611 7.36458 11.7774L7.66878 11.3806ZM7.96498 11.5302L7.63195 11.3571L7.40142 11.8008L7.73446 11.9738L7.96498 11.5302ZM8.0329 11.5561L7.94283 11.52L7.75661 11.984L7.84668 12.0202L8.0329 11.5561ZM10.0081 12.3404C9.46606 12.121 8.57623 11.7654 8.02966 11.5549L7.84993 12.0214C8.39254 12.2305 9.27931 12.5848 9.8205 12.8039L10.0081 12.3404ZM11.7923 13.0671L10.0086 12.3406L9.82001 12.8037L11.6037 13.5302L11.7923 13.0671ZM11.8124 13.0754L11.7927 13.0673L11.6033 13.53L11.623 13.5381L11.8124 13.0754ZM12.9329 13.7052C12.9329 13.6299 12.8994 13.5787 12.8883 13.5627C12.8738 13.5418 12.8593 13.5278 12.8523 13.5213C12.8378 13.5079 12.8249 13.4993 12.8207 13.4965C12.8103 13.4896 12.8016 13.485 12.7992 13.4837C12.7925 13.4801 12.7865 13.4773 12.7838 13.4761C12.7774 13.4731 12.77 13.4698 12.7631 13.4668C12.7486 13.4605 12.7283 13.4519 12.7037 13.4415C12.654 13.4207 12.5827 13.3912 12.4952 13.3552C12.3202 13.2831 12.0786 13.1843 11.8124 13.0754L11.623 13.5381C11.8895 13.6471 12.1305 13.7457 12.3049 13.8175C12.3922 13.8535 12.4622 13.8825 12.5103 13.9026C12.5345 13.9128 12.5522 13.9203 12.5635 13.9252C12.5662 13.9264 12.5684 13.9273 12.5699 13.928C12.5716 13.9288 12.5722 13.9291 12.572 13.929C12.5719 13.9289 12.5712 13.9286 12.5702 13.9281C12.5693 13.9277 12.5671 13.9266 12.5641 13.925C12.5625 13.9241 12.5544 13.9199 12.5445 13.9133C12.5405 13.9107 12.5278 13.9022 12.5133 13.8888C12.5064 13.8824 12.4919 13.8685 12.4774 13.8476C12.4664 13.8316 12.4329 13.7804 12.4329 13.7052H12.9329ZM12.8 13.4952C12.851 13.5207 12.8788 13.5567 12.887 13.5675C12.8984 13.5827 12.9056 13.5959 12.909 13.6026C12.916 13.6163 12.9198 13.6272 12.9213 13.6314C12.9231 13.6368 12.9247 13.6421 12.926 13.6477C12.9267 13.6504 12.9278 13.655 12.9289 13.6609C12.9291 13.6618 12.9329 13.6808 12.9329 13.7052H12.4329C12.4329 13.73 12.4368 13.7497 12.4372 13.7516C12.4384 13.7584 12.4398 13.7641 12.4408 13.7681C12.4428 13.7762 12.4452 13.7846 12.4481 13.793C12.4506 13.8002 12.4556 13.8142 12.4638 13.8303C12.4679 13.8382 12.4756 13.8524 12.4877 13.8684C12.4965 13.8801 12.5249 13.9167 12.5765 13.9424L12.8 13.4952ZM12.7309 12.6296C12.6542 12.9108 12.584 13.1663 12.5326 13.3514C12.5069 13.4439 12.486 13.5186 12.4715 13.5699C12.4642 13.5957 12.4587 13.6149 12.455 13.6274C12.4531 13.6339 12.452 13.6372 12.4517 13.6384C12.4513 13.6395 12.452 13.6372 12.4533 13.6336C12.4537 13.6326 12.4559 13.6262 12.4595 13.6181C12.4607 13.6152 12.4658 13.6035 12.4743 13.5896C12.4779 13.5836 12.4882 13.5667 12.5055 13.5483C12.5147 13.5389 12.5394 13.5179 12.5553 13.5071C12.5804 13.4933 12.647 13.4722 12.6882 13.4688V13.9688C12.7294 13.9654 12.7961 13.9444 12.8212 13.9305C12.8371 13.9197 12.8618 13.8987 12.8711 13.8893C12.8883 13.8708 12.8987 13.8539 12.9024 13.8479C12.9109 13.8338 12.916 13.822 12.9174 13.8189C12.9212 13.8103 12.9237 13.8032 12.9243 13.8014C12.9263 13.796 12.9278 13.7911 12.9286 13.7886C12.9304 13.7827 12.9325 13.7757 12.9347 13.7685C12.939 13.7536 12.9451 13.7324 12.9525 13.7063C12.9674 13.6536 12.9886 13.578 13.0144 13.4851C13.066 13.2992 13.1365 13.0429 13.2133 12.7612L12.7309 12.6296Z" fill="black"/>
</svg>
