<svg width="16" height="16" viewBox="0 0 16 16" fill="none" xmlns="http://www.w3.org/2000/svg">
<path fill-rule="evenodd" clip-rule="evenodd" d="M15.5004 0.528593C15.2432 0.192593 14.8444 0 14.4059 0C14.1226 0 13.8293 0.0788148 13.5336 0.234074L0.943942 6.83496C0.0491276 7.30489 -0.0130947 8.01244 0.00172013 8.29452C0.0159424 8.57837 0.152831 9.27467 1.0915 9.64741L2.70039 10.2839C3.00557 10.4047 3.34691 10.467 3.71431 10.467C3.75018 10.467 3.78515 10.464 3.82019 10.4611H3.8202L3.82025 10.4611C3.84192 10.4593 3.86362 10.4574 3.88557 10.4563C3.8759 10.4688 3.8653 10.4801 3.85474 10.4914L3.85474 10.4914C3.84138 10.5056 3.82809 10.5197 3.81683 10.5363C3.51698 10.9849 3.50216 11.5929 3.77357 12.2477C3.77772 12.259 3.78187 12.2684 3.78602 12.2779C4.26187 13.3321 4.79105 14.5221 4.85505 14.6874C5.01268 15.0987 5.41446 15.3819 5.85535 15.3819C6.53446 15.3819 6.73594 15.0548 7.84705 13.2462C7.93357 13.1135 8.12616 12.8053 8.15876 12.413C8.24065 12.4463 8.31947 12.4779 8.39269 12.5073L8.39315 12.5075L8.5149 12.5564L10.2974 13.283C10.6548 13.4287 10.9676 13.5573 11.1324 13.6255C11.1834 13.6569 11.2373 13.6836 11.2936 13.7067C11.4192 13.7564 11.5531 13.7819 11.6876 13.7819C12.498 13.7819 12.6926 13.0802 12.7969 12.7038L12.797 12.7034C12.8485 12.5173 12.9196 12.2596 12.9961 11.9751L15.7149 1.98519C15.9199 1.23081 15.6681 0.749037 15.5004 0.528593ZM6.94928 12.6773C6.94928 12.6773 5.94068 14.3194 5.85476 14.3194C5.85239 14.3194 5.8512 14.3182 5.85002 14.3159C5.75105 14.0498 4.75431 11.8412 4.75431 11.8412C4.57061 11.3985 4.60379 11.0193 4.91965 11.0193C4.98898 11.0193 5.07194 11.0376 5.16913 11.0779L5.94305 11.4803C6.07224 11.5686 6.21328 11.645 6.36854 11.7061L6.40765 11.7209L6.48053 11.7576C7.07846 12.0741 7.26868 12.1884 6.94928 12.6773ZM11.9721 11.6954L14.6897 1.70548C14.7999 1.29956 14.6767 1.06252 14.4059 1.06252C14.3004 1.06252 14.173 1.09807 14.0278 1.17393L1.43698 7.776C0.919646 8.04859 0.940387 8.44563 1.48379 8.66074L3.0915 9.29659C3.27579 9.36948 3.49209 9.40504 3.71491 9.40504C4.14987 9.40504 4.61268 9.2723 4.91728 9.03467L11.8992 3.52711C12.1042 3.36652 12.2269 3.2877 12.2648 3.2877C12.3128 3.2877 12.2293 3.40978 12.0076 3.64622L6.48942 9.55496C6.15757 9.90874 6.18661 10.3259 6.51668 10.579L6.84972 10.752L6.93979 10.7881C7.48439 10.9979 8.37268 11.3529 8.91431 11.5721L10.698 12.2987L10.7177 12.3067C11.2504 12.5247 11.6829 12.7017 11.6829 12.7052C11.6829 12.707 11.6859 12.7176 11.6882 12.7188C11.6906 12.7188 11.8186 12.2584 11.9721 11.6954Z" fill="#010002"/>
</svg>
